<mxfile host="app.diagrams.net" modified="2023-10-16T00:27:55.258Z" agent="Mozilla/5.0 (Windows NT 10.0; Win64; x64; rv:109.0) Gecko/20100101 Firefox/118.0" version="22.0.4" etag="9D_a6d7_Ln6NlZekdGtV" type="github">
  <diagram name="Page-1" id="NheHObNebf879Kh67dO5">
    <mxGraphModel>
      <root>
        <mxCell id="0" />
        <mxCell id="1" parent="0" />
      </root>
    </mxGraphModel>
  </diagram>
</mxfile>
